<mxfile host="app.diagrams.net" modified="2023-04-21T15:47:58.387Z" agent="Mozilla/5.0 (Windows NT 10.0; Win64; x64) AppleWebKit/537.36 (KHTML, like Gecko) Chrome/112.0.0.0 Safari/537.36" version="21.2.1" etag="za4yB5JoSvNDe2Glhw_Z" type="github">
  <diagram name="PÃ¡gina-1" id="eh2e35O9uGrTkZTRKp7o">
    <mxGraphModel>
      <root>
        <mxCell id="0" />
        <mxCell id="1" parent="0" />
      </root>
    </mxGraphModel>
  </diagram>
</mxfile>
